<svg width="240" height="64" xmlns="http://www.w3.org/2000/svg" version="1.1">

 <g>
  <title>Layer 1</title>
  <g id="img">
   <rect fill="none" width="240" height="64" id="rect3778"/>
   <g id="g4194">
    <g fill="currentColor" id="g4145">
     <circle r="2.2765" cx="9.4364" cy="43.713" transform="rotate(-30)" stroke-width="1.3262" id="path2993"/>
     <path d="m37.012,24.177l-2.8428,3.6128c0.66345,0.52205 1.3255,1.1576 1.7734,1.9333c0.4479,0.77578 0.66726,1.6669 0.78764,2.5025l4.5502,-0.65558c-0.193,-1.42 -0.633,-2.804 -1.394,-4.123s-1.74,-2.391 -2.874,-3.27l-0.00044,-0.00002z" stroke-width="1.0095" id="path3004"/>
     <path d="m42.504,16.9l-2.8428,3.6128c1.607,1.2355 3.0914,2.7935 4.1679,4.6581s1.6835,3.9291 1.95,5.9386l4.5502,-0.65558c-0.33967,-2.5954 -1.1669,-5.1513 -2.5573,-7.5594c-1.3903,-2.4081 -3.1901,-4.4025 -5.268,-5.9944l0,-0.00012z" stroke-width="1.0095" id="path3014"/>
     <path d="m28.667,44.439a9.1058,9.1058 0 0 1 -9.1058,0.00002a9.1058,9.1058 0 0 1 -4.5529,-7.8859a9.1058,9.1058 0 0 1 4.5529,-7.8859l4.5529,7.8859l4.5529,7.88588z" stroke-width="3.6204" id="path3036"/>
     <path d="m17.502,6.8895c-13.868,8.0065 -18.619,25.74 -10.612,39.608c8.006,13.868 25.739,18.619 39.608,10.613c13.868,-8.007 18.619,-25.74 10.613,-39.609c-8.007,-13.868 -25.74,-18.62 -39.609,-10.612zm1.706,2.9541c12.237,-7.0648 27.884,-2.8722 34.948,9.3644c7.065,12.237 2.873,27.884 -9.364,34.948c-12.237,7.065 -27.884,2.873 -34.948,-9.364c-7.0652,-12.237 -2.8726,-27.884 9.364,-34.948l0,-0.0004z" stroke-width="1.0095" id="path3038-8"/>
    </g>
   </g>
   <g fill="currentColor" aria-label="Traccar" id="logotext">
    <path d="m89.719,48.671l-3.915,0l0,-30.192l-10.663,0l0,-3.4775l25.241,0l0,3.4775l-10.663,0l0,30.192z" id="path4172"/>
    <path d="m116.36,22.969q1.6812,0 3.0169,0.27636l-0.52968,3.5466q-1.566,-0.34544 -2.7636,-0.34544q-3.063,0 -5.2508,2.4872q-2.1648,2.4872 -2.1648,6.195l0,13.541l-3.8229,0l0,-25.241l3.1551,0l0.43756,4.675l0.18424,0q1.4048,-2.4642 3.3854,-3.7999t4.3526,-1.3357l-0.00002,0.00088z" id="path4174"/>
    <path d="m139.62,48.671l-0.75998,-3.5926l-0.18424,0q-1.8884,2.3721 -3.7769,3.2242q-1.8654,0.82907 -4.675,0.82907q-3.7538,0 -5.8956,-1.9345q-2.1187,-1.9345 -2.1187,-5.5041q0,-7.6459 12.229,-8.0143l4.2835,-0.13818l0,-1.566q0,-2.9708 -1.2897,-4.3756q-1.2666,-1.4278 -4.0763,-1.4278q-3.1551,0 -7.1392,1.9345l-1.1745,-2.9248q1.8654,-1.0133 4.0762,-1.589q2.2339,-0.57574 4.4678,-0.57574q4.5138,0 6.6786,2.0036q2.1878,2.0036 2.1878,6.4253l0,17.226l-2.8326,0l-0.00018,-0.00005zm-8.6361,-2.6945q3.5696,0 5.5962,-1.9575q2.0496,-1.9575 2.0496,-5.4811l0,-2.2799l-3.8229,0.16121q-4.5599,0.16121 -6.5865,1.4278q-2.0036,1.2436 -2.0036,3.892q0,2.0727 1.2436,3.1551q1.2666,1.0824 3.5236,1.0824l0,-0.00001z" id="path4176"/>
    <path d="m160.44,49.131q-5.4811,0 -8.498,-3.3623q-2.9939,-3.3854 -2.9939,-9.5573q0,-6.3332 3.0399,-9.7876q3.063,-3.4545 8.7052,-3.4545q1.8194,0 3.6387,0.3915t2.8557,0.92119l-1.1745,3.2472q-1.2666,-0.50665 -2.7636,-0.82907q-1.4969,-0.34544 -2.6484,-0.34544q-7.6919,0 -7.6919,9.8106q0,4.652 1.8654,7.1392q1.8884,2.4872 5.5732,2.4872q3.1551,0 6.4713,-1.3588l0,3.3854q-2.5333,1.3127 -6.3792,1.3127l0.0001,0.00002z" id="path4178"/>
    <path d="m182.92,49.131q-5.4811,0 -8.498,-3.3623q-2.9939,-3.3854 -2.9939,-9.5573q0,-6.3332 3.0399,-9.7876q3.063,-3.4545 8.7052,-3.4545q1.8193,0 3.6387,0.3915t2.8557,0.92119l-1.1745,3.2472q-1.2666,-0.50665 -2.7636,-0.82907q-1.4969,-0.34544 -2.6484,-0.34544q-7.6919,0 -7.6919,9.8106q0,4.652 1.8654,7.1392q1.8884,2.4872 5.5732,2.4872q3.1551,0 6.4714,-1.3588l0,3.3854q-2.5333,1.3127 -6.3792,1.3127l0,0.00002z" id="path4180"/>
    <path d="m210.83,48.671l-0.75998,-3.5926l-0.18424,0q-1.8884,2.3721 -3.7769,3.2242q-1.8654,0.82907 -4.675,0.82907q-3.7538,0 -5.8956,-1.9345q-2.1187,-1.9345 -2.1187,-5.5041q0,-7.6459 12.229,-8.0143l4.2835,-0.13818l0,-1.566q0,-2.9708 -1.2897,-4.3756q-1.2666,-1.4278 -4.0762,-1.4278q-3.1551,0 -7.1392,1.9345l-1.1745,-2.9248q1.8654,-1.0133 4.0762,-1.589q2.2339,-0.57574 4.4678,-0.57574q4.5138,0 6.6786,2.0036q2.1878,2.0036 2.1878,6.4253l0,17.226l-2.8326,0l-0.00028,-0.00005zm-8.6361,-2.6945q3.5696,0 5.5962,-1.9575q2.0496,-1.9575 2.0496,-5.4811l0,-2.2799l-3.8229,0.16121q-4.5599,0.16121 -6.5865,1.4278q-2.0036,1.2436 -2.0036,3.892q0,2.0727 1.2436,3.1551q1.2666,1.0824 3.5235,1.0824l0.0001,-0.00001z" id="path4182"/>
    <path d="m233.08,22.969q1.6812,0 3.0169,0.27636l-0.52968,3.5466q-1.566,-0.34544 -2.7636,-0.34544q-3.0629,0 -5.2508,2.4872q-2.1648,2.4872 -2.1648,6.195l0,13.541l-3.8229,0l0,-25.241l3.1551,0l0.43757,4.675l0.18423,0q1.4048,-2.4642 3.3854,-3.7999t4.3526,-1.3357l-0.00002,0.00088z" id="path4184"/>
   </g>
  </g>
  <text transform="matrix(0.433021, 0, 0, 0.39332, 122.715, 39.5488)" xml:space="preserve" text-anchor="start" font-family="Noto Sans JP" font-size="24" id="svg_3" y="58.24816" x="194.01791" stroke-width="0" stroke="#000" fill="#d9534f">offline</text>
 </g>
</svg>